<?xml version="1.0" encoding="UTF-8"?>
<svg id="Layer_2" data-name="Layer 2" xmlns="http://www.w3.org/2000/svg" viewBox="0 0 349.88 147.25">
  <defs>
    <style>
      .cls-1 {
        fill: #ffffff;
      }
    </style>
  </defs>
  <g id="Layer_1-2" data-name="Layer 1">
    <g>
      <path class="cls-1" d="M85.49,147.25H8.96c-4.95,0-8.96-4.01-8.96-8.96V8.96C0,4.01,4.01,0,8.96,0h73.45c9.52,0,17.62,1.4,24.28,4.18,6.67,2.79,11.79,6.89,15.38,12.31,3.59,5.42,5.39,12.01,5.39,19.78,0,8.65-2.53,15.97-7.58,21.98-4.94,5.87-12.85,9.5-23.74,10.9-.44.06-.77.42-.77.86h0c0,.44.33.81.77.86,12.21,1.53,21.33,5.42,27.36,11.67s9.23,14.4,9.23,24.07c0,8.35-1.83,15.6-5.49,21.76-3.67,6.15-9.01,10.84-16.04,14.07-7.03,3.22-15.6,4.84-25.71,4.84ZM23.52,30.28v22.51c0,4.95,4.01,8.96,8.96,8.96h46.64c8.35,0,14.58-1.65,18.68-4.95,4.1-3.3,6.15-8.39,6.15-15.27s-1.98-11.98-5.93-15.28c-3.96-3.3-10.04-4.94-18.24-4.94h-47.3c-4.95,0-8.96,4.01-8.96,8.96ZM23.52,90.28v26.69c0,4.95,4.01,8.96,8.96,8.96h50.38c8.79,0,15.35-1.79,19.67-5.39,4.32-3.59,6.48-9.34,6.48-17.25s-2.16-13.37-6.48-16.81c-4.32-3.44-10.88-5.16-19.67-5.16h-50.38c-4.95,0-8.96,4.01-8.96,8.96Z"/>
      <path class="cls-1" d="M160.76,147.25h-11.63c-5.04,0-9.13-4.09-9.13-9.13v-15.81c0-5.04,4.09-9.13,9.13-9.13h11.63c5.04,0,9.13,4.09,9.13,9.13v15.81c0,5.04-4.09,9.13-9.13,9.13Z"/>
      <path class="cls-1" d="M202.4,25.28h-6.14c-4.86,0-8.8-3.94-8.8-8.8v-7.68C187.47,3.94,191.4,0,196.26,0h6.14C207.26,0,211.2,3.94,211.2,8.8v7.68c0,4.86-3.94,8.8-8.8,8.8ZM205.55,147.25h-12.44c-3.12,0-5.65-2.53-5.65-5.65V43.67c0-3.12,2.53-5.65,5.65-5.65h12.44c3.12,0,5.65,2.53,5.65,5.65v97.93c0,3.12-2.53,5.65-5.65,5.65Z"/>
      <path class="cls-1" d="M289,147.25c-12.02,0-22.6-2.38-31.76-7.14-9.16-4.76-16.26-11.43-21.32-20-5.05-8.57-7.58-18.42-7.58-29.56s2.53-21.39,7.58-29.89c5.05-8.5,12.16-15.13,21.32-19.89,9.16-4.76,19.74-7.14,31.76-7.14s23,2.38,32.09,7.14c9.08,4.76,16.15,11.39,21.21,19.89,5.05,8.5,7.58,18.46,7.58,29.89s-2.53,20.99-7.58,29.56c-5.06,8.57-12.13,15.24-21.21,20-9.09,4.76-19.78,7.14-32.09,7.14ZM289,126.15c13.33,0,22.93-3.04,28.79-9.12,5.86-6.08,8.79-14.91,8.79-26.48s-2.93-20.47-8.79-26.7c-5.86-6.23-15.46-9.34-28.79-9.34s-22.71,3.12-28.57,9.34c-5.86,6.23-8.79,15.13-8.79,26.7s2.93,20.4,8.79,26.48c5.86,6.08,15.38,9.12,28.57,9.12Z"/>
    </g>
  </g>
</svg>