<svg xmlns="http://www.w3.org/2000/svg" width="24" height="24" viewBox="0 0 24 24">
	<path fill="currentColor" d="M12 4.75a2.25 2.25 0 1 0 0 4.5a2.25 2.25 0 0 0 0-4.5M8.25 7a3.75 3.75 0 1 1 7.5 0a3.75 3.75 0 0 1-7.5 0m1.064 5.819c.132.098.302.213.505.327c.513.29 1.265.59 2.18.59s1.668-.3 2.181-.59c.203-.114.373-.229.505-.327q.282.075.559.166l.96.315c.72.237 1.264.812 1.458 1.523l.397 2.864c.075.544-.21.939-.606 1.033c-1.047.25-2.812.53-5.453.53s-4.407-.28-5.454-.53c-.395-.094-.68-.489-.606-1.033l.397-2.864A2.23 2.23 0 0 1 7.796 13.3l.96-.315q.276-.09.558-.166m.71-1.355l-.291-.287l-.402.092q-.526.12-1.044.291l-.96.315a3.72 3.72 0 0 0-2.454 2.616l-.01.04l-.408 2.95c-.161 1.164.462 2.393 1.744 2.698c1.17.279 3.052.571 5.8.571c2.749 0 4.631-.292 5.801-.57c1.282-.306 1.906-1.535 1.745-2.698l-.409-2.95l-.01-.04a3.72 3.72 0 0 0-2.455-2.617l-.959-.315q-.517-.17-1.044-.29l-.402-.093l-.29.286l-.001.001a2 2 0 0 1-.12.101a3 3 0 0 1-.41.274a2.96 2.96 0 0 1-1.445.397a2.96 2.96 0 0 1-1.445-.397a3.2 3.2 0 0 1-.53-.375" />
</svg>