<svg   viewBox="0 0 12 12" fill="currentColor" xmlns="http://www.w3.org/2000/svg">
<path d="M7.3665 0.625H4.6335C4.2275 0.625 3.899 0.625 3.6335 0.6475C3.3585 0.671 3.117 0.72 2.8935 0.838C2.53873 1.02658 2.25287 1.32276 2.077 1.684C1.9655 1.911 1.919 2.156 1.897 2.4375C1.875 2.712 1.875 3.051 1.875 3.4735V8.5265C1.875 8.949 1.875 9.288 1.8965 9.5625C1.919 9.844 1.9655 10.089 2.0765 10.316C2.25263 10.6774 2.53886 10.9736 2.894 11.162C3.117 11.28 3.359 11.329 3.633 11.352C3.8405 11.37 4.085 11.374 4.375 11.375V7.75C4.375 7.38533 4.51987 7.03559 4.77773 6.77773C5.03559 6.51987 5.38533 6.375 5.75 6.375H6.25C6.61467 6.375 6.96441 6.51987 7.22227 6.77773C7.48013 7.03559 7.625 7.38533 7.625 7.75V11.375C7.87253 11.3772 8.12005 11.3697 8.367 11.3525C8.6415 11.329 8.883 11.28 9.106 11.162C9.46095 10.9735 9.747 10.6773 9.923 10.316C10.0345 10.089 10.081 9.844 10.103 9.562C10.125 9.288 10.125 8.949 10.125 8.527V3.4735C10.125 3.051 10.125 2.712 10.1035 2.4375C10.0815 2.156 10.0345 1.911 9.9235 1.684C9.74737 1.32261 9.46114 1.02641 9.106 0.838C8.883 0.72 8.641 0.671 8.367 0.648C8.101 0.625 7.7725 0.625 7.367 0.625M3.625 3C3.625 2.90054 3.66451 2.80516 3.73483 2.73483C3.80516 2.66451 3.90054 2.625 4 2.625H5C5.09946 2.625 5.19484 2.66451 5.26516 2.73483C5.33549 2.80516 5.375 2.90054 5.375 3C5.375 3.09946 5.33549 3.19484 5.26516 3.26517C5.19484 3.33549 5.09946 3.375 5 3.375H4C3.90054 3.375 3.80516 3.33549 3.73483 3.26517C3.66451 3.19484 3.625 3.09946 3.625 3ZM4 4.625H5C5.09946 4.625 5.19484 4.66451 5.26516 4.73484C5.33549 4.80516 5.375 4.90054 5.375 5C5.375 5.09946 5.33549 5.19484 5.26516 5.26516C5.19484 5.33549 5.09946 5.375 5 5.375H4C3.90054 5.375 3.80516 5.33549 3.73483 5.26516C3.66451 5.19484 3.625 5.09946 3.625 5C3.625 4.90054 3.66451 4.80516 3.73483 4.73484C3.80516 4.66451 3.90054 4.625 4 4.625ZM6.625 3C6.625 2.90054 6.66451 2.80516 6.73484 2.73483C6.80516 2.66451 6.90054 2.625 7 2.625H8C8.09946 2.625 8.19484 2.66451 8.26517 2.73483C8.33549 2.80516 8.375 2.90054 8.375 3C8.375 3.09946 8.33549 3.19484 8.26517 3.26517C8.19484 3.33549 8.09946 3.375 8 3.375H7C6.90054 3.375 6.80516 3.33549 6.73484 3.26517C6.66451 3.19484 6.625 3.09946 6.625 3ZM7 4.625H8C8.09946 4.625 8.19484 4.66451 8.26517 4.73484C8.33549 4.80516 8.375 4.90054 8.375 5C8.375 5.09946 8.33549 5.19484 8.26517 5.26516C8.19484 5.33549 8.09946 5.375 8 5.375H7C6.90054 5.375 6.80516 5.33549 6.73484 5.26516C6.66451 5.19484 6.625 5.09946 6.625 5C6.625 4.90054 6.66451 4.80516 6.73484 4.73484C6.80516 4.66451 6.90054 4.625 7 4.625Z" fill="currentColor"/>
<path d="M6.875 11.375V7.75C6.875 7.405 6.595 7.125 6.25 7.125H5.75C5.405 7.125 5.125 7.405 5.125 7.75V11.375H6.875Z" fill="currentColor"/>
</svg>
