<svg   viewBox="0 0 12 12" fill="currentColor" xmlns="http://www.w3.org/2000/svg">
<path d="M4.6955 1.823C4.73623 1.62581 4.84372 1.44871 4.99984 1.32155C5.15596 1.1944 5.35115 1.12498 5.5525 1.125H6.4475C6.64885 1.12498 6.84404 1.1944 7.00016 1.32155C7.15628 1.44871 7.26377 1.62581 7.3045 1.823C7.55526 1.90119 7.79842 2.00194 8.031 2.124C8.19928 2.01326 8.40062 1.96398 8.60102 1.98448C8.80143 2.00497 8.98862 2.09399 9.131 2.2365L9.7635 2.8695C9.90589 3.01185 9.99483 3.19895 10.0153 3.39924C10.0358 3.59953 9.98661 3.80077 9.876 3.969C9.99767 4.2 10.098 4.44217 10.177 4.6955C10.3742 4.73623 10.5513 4.84372 10.6784 4.99984C10.8056 5.15596 10.875 5.35115 10.875 5.5525V6.4475C10.875 6.64885 10.8056 6.84404 10.6784 7.00016C10.5513 7.15628 10.3742 7.26377 10.177 7.3045C10.098 7.55783 9.99767 7.8 9.876 8.031C9.98674 8.19928 10.036 8.40062 10.0155 8.60102C9.99503 8.80143 9.90601 8.98862 9.7635 9.131L9.1305 9.7635C8.98815 9.90589 8.80105 9.99483 8.60076 10.0153C8.40047 10.0358 8.19923 9.98661 8.031 9.876C7.79842 9.99806 7.55526 10.0988 7.3045 10.177C7.26377 10.3742 7.15628 10.5513 7.00016 10.6784C6.84404 10.8056 6.64885 10.875 6.4475 10.875H5.5525C5.35115 10.875 5.15596 10.8056 4.99984 10.6784C4.84372 10.5513 4.73623 10.3742 4.6955 10.177C4.44474 10.0988 4.20158 9.99806 3.969 9.876C3.80072 9.98674 3.59938 10.036 3.39898 10.0155C3.19857 9.99503 3.01138 9.90601 2.869 9.7635L2.2365 9.1305C2.09411 8.98815 2.00517 8.80105 1.98468 8.60076C1.96418 8.40047 2.01339 8.19923 2.124 8.031C2.00194 7.79842 1.90119 7.55526 1.823 7.3045C1.62581 7.26377 1.44871 7.15628 1.32155 7.00016C1.1944 6.84404 1.12498 6.64885 1.125 6.4475V5.5525C1.12498 5.35115 1.1944 5.15596 1.32155 4.99984C1.44871 4.84372 1.62581 4.73623 1.823 4.6955C1.90119 4.44474 2.00194 4.20158 2.124 3.969C2.01326 3.80072 1.96398 3.59938 1.98448 3.39898C2.00497 3.19857 2.09399 3.01138 2.2365 2.869L2.8695 2.2365C3.01185 2.09411 3.19895 2.00517 3.39924 1.98468C3.59953 1.96418 3.80077 2.01339 3.969 2.124C4.20158 2.00194 4.44474 1.90119 4.6955 1.823ZM4.375 6C4.375 6.43098 4.54621 6.8443 4.85095 7.14905C5.1557 7.45379 5.56902 7.625 6 7.625C6.43098 7.625 6.8443 7.45379 7.14905 7.14905C7.45379 6.8443 7.625 6.43098 7.625 6C7.625 5.56902 7.45379 5.1557 7.14905 4.85095C6.8443 4.54621 6.43098 4.375 6 4.375C5.56902 4.375 5.1557 4.54621 4.85095 4.85095C4.54621 5.1557 4.375 5.56902 4.375 6Z" fill="currentColor"/>
</svg>
