<svg   viewBox="0 0 12 12" fill="currentColor" xmlns="http://www.w3.org/2000/svg">
<path d="M2.06249 10.2236H9.9375C10.9871 10.2236 11.5146 9.70653 11.5146 8.67196V3.33325C11.5146 2.29867 10.9871 1.77625 9.9375 1.77625H2.06249C1.01292 1.77625 0.485352 2.29867 0.485352 3.33325V8.67196C0.485352 9.70653 1.01271 10.2236 2.06249 10.2236ZM1.29407 3.37867C1.29407 2.85625 1.57542 2.58517 2.07749 2.58517H9.92742C10.4246 2.58517 10.7059 2.85625 10.7059 3.37867V3.80039H1.29407V3.37867ZM2.07749 9.41553C1.57521 9.41553 1.29407 9.14917 1.29407 8.62696V4.94039H10.7059V8.62675C10.7059 9.14896 10.4246 9.41532 9.92742 9.41532L2.07749 9.41553ZM2.65499 7.9286H3.88564C4.18199 7.9286 4.37785 7.73275 4.37785 7.44646V6.51732C4.37785 6.23617 4.18199 6.03517 3.88564 6.03517H2.65499C2.35864 6.03517 2.16278 6.23617 2.16278 6.51732V7.44646C2.16278 7.73275 2.35864 7.9286 2.65499 7.9286Z" fill="currentColor"/>
</svg>
