<svg   viewBox="0 0 12 12" fill="currentColor" xmlns="http://www.w3.org/2000/svg">
<path d="M7 4.5C6.85833 4.5 6.73967 4.452 6.644 4.356C6.54833 4.26 6.50033 4.14133 6.5 4V2C6.5 1.85833 6.548 1.73967 6.644 1.644C6.74 1.54833 6.85867 1.50033 7 1.5H10C10.1417 1.5 10.2605 1.548 10.3565 1.644C10.4525 1.74 10.5003 1.85867 10.5 2V4C10.5 4.14167 10.452 4.2605 10.356 4.3565C10.26 4.4525 10.1413 4.50033 10 4.5H7ZM2 6.5C1.85833 6.5 1.73967 6.452 1.644 6.356C1.54833 6.26 1.50033 6.14133 1.5 6V2C1.5 1.85833 1.548 1.73967 1.644 1.644C1.74 1.54833 1.85867 1.50033 2 1.5H5C5.14167 1.5 5.2605 1.548 5.3565 1.644C5.4525 1.74 5.50033 1.85867 5.5 2V6C5.5 6.14167 5.452 6.2605 5.356 6.3565C5.26 6.4525 5.14133 6.50033 5 6.5H2ZM7 10.5C6.85833 10.5 6.73967 10.452 6.644 10.356C6.54833 10.26 6.50033 10.1413 6.5 10V6C6.5 5.85833 6.548 5.73967 6.644 5.644C6.74 5.54833 6.85867 5.50033 7 5.5H10C10.1417 5.5 10.2605 5.548 10.3565 5.644C10.4525 5.74 10.5003 5.85867 10.5 6V10C10.5 10.1417 10.452 10.2605 10.356 10.3565C10.26 10.4525 10.1413 10.5003 10 10.5H7ZM2 10.5C1.85833 10.5 1.73967 10.452 1.644 10.356C1.54833 10.26 1.50033 10.1413 1.5 10V8C1.5 7.85833 1.548 7.73967 1.644 7.644C1.74 7.54833 1.85867 7.50033 2 7.5H5C5.14167 7.5 5.2605 7.548 5.3565 7.644C5.4525 7.74 5.50033 7.85867 5.5 8V10C5.5 10.1417 5.452 10.2605 5.356 10.3565C5.26 10.4525 5.14133 10.5003 5 10.5H2Z" fill="currentColor"/>
</svg>
