<svg   viewBox="0 0 12 12" fill="currentColor" xmlns="http://www.w3.org/2000/svg">
<path fill-rule="evenodd" clip-rule="evenodd" d="M9.5 10.75H3C2.53587 10.75 2.09075 10.5656 1.76256 10.2375C1.43437 9.90927 1.25 9.46415 1.25 9.00002V2.47152C1.25 1.93802 1.778 1.59952 2.2425 1.76052C2.30917 1.78352 2.37367 1.81719 2.436 1.86152L2.5235 1.92402C2.73633 2.07503 2.99094 2.15595 3.2519 2.1555C3.51286 2.15505 3.76719 2.07326 3.9795 1.92152C4.27752 1.70943 4.63422 1.59546 5 1.59546C5.36578 1.59546 5.72248 1.70943 6.0205 1.92152C6.23281 2.07326 6.48714 2.15505 6.7481 2.1555C7.00906 2.15595 7.26367 2.07503 7.4765 1.92402L7.564 1.86152C8.0605 1.50652 8.75 1.86152 8.75 2.47152V6.25002H10.5C10.5995 6.25002 10.6948 6.28953 10.7652 6.35986C10.8355 6.43018 10.875 6.52556 10.875 6.62502V9.37502C10.875 9.73969 10.7301 10.0894 10.4723 10.3473C10.2144 10.6052 9.86467 10.75 9.5 10.75ZM8.875 7.00002V9.37502C8.875 9.54078 8.94085 9.69975 9.05806 9.81696C9.17527 9.93417 9.33424 10 9.5 10C9.66576 10 9.82473 9.93417 9.94194 9.81696C10.0592 9.69975 10.125 9.54078 10.125 9.37502V7.00002H8.875ZM6.75 4.87502C6.75 4.77556 6.71049 4.68018 6.64016 4.60986C6.56984 4.53953 6.47446 4.50002 6.375 4.50002H3.375C3.27554 4.50002 3.18016 4.53953 3.10983 4.60986C3.03951 4.68018 3 4.77556 3 4.87502C3 4.97448 3.03951 5.06986 3.10983 5.14019C3.18016 5.21051 3.27554 5.25002 3.375 5.25002H6.375C6.47446 5.25002 6.56984 5.21051 6.64016 5.14019C6.71049 5.06986 6.75 4.97448 6.75 4.87502ZM6.25 6.37502C6.25 6.27556 6.21049 6.18018 6.14016 6.10986C6.06984 6.03953 5.97446 6.00002 5.875 6.00002H3.375C3.27554 6.00002 3.18016 6.03953 3.10983 6.10986C3.03951 6.18018 3 6.27556 3 6.37502C3 6.47448 3.03951 6.56986 3.10983 6.64019C3.18016 6.71051 3.27554 6.75002 3.375 6.75002H5.875C5.97446 6.75002 6.06984 6.71051 6.14016 6.64019C6.21049 6.56986 6.25 6.47448 6.25 6.37502ZM6.375 7.50002C6.47446 7.50002 6.56984 7.53953 6.64016 7.60986C6.71049 7.68018 6.75 7.77556 6.75 7.87502C6.75 7.97448 6.71049 8.06986 6.64016 8.14019C6.56984 8.21051 6.47446 8.25002 6.375 8.25002H3.375C3.27554 8.25002 3.18016 8.21051 3.10983 8.14019C3.03951 8.06986 3 7.97448 3 7.87502C3 7.77556 3.03951 7.68018 3.10983 7.60986C3.18016 7.53953 3.27554 7.50002 3.375 7.50002H6.375Z" fill="currentColor"/>
</svg>
