<svg   viewBox="0 0 12 12" fill="currentColor" xmlns="http://www.w3.org/2000/svg">
<path d="M4.5875 5.4125C4.19583 5.02083 4 4.55 4 4C4 3.45 4.19583 2.97917 4.5875 2.5875C4.97917 2.19583 5.45 2 6 2C6.55 2 7.02083 2.19583 7.4125 2.5875C7.80417 2.97917 8 3.45 8 4C8 4.55 7.80417 5.02083 7.4125 5.4125C7.02083 5.80417 6.55 6 6 6C5.45 6 4.97917 5.80417 4.5875 5.4125ZM2 10V8.6C2 8.31667 2.073 8.05633 2.219 7.819C2.365 7.58167 2.55867 7.40033 2.8 7.275C3.31667 7.01667 3.84167 6.823 4.375 6.694C4.90833 6.565 5.45 6.50033 6 6.5C6.55 6.49967 7.09167 6.56433 7.625 6.694C8.15833 6.82367 8.68333 7.01733 9.2 7.275C9.44167 7.4 9.6355 7.58133 9.7815 7.819C9.9275 8.05667 10.0003 8.317 10 8.6V10H2Z" fill="currentColor"/>
</svg>
