<svg   viewBox="0 0 12 12" fill="currentColor" xmlns="http://www.w3.org/2000/svg">
<path d="M7.875 5.625C8.705 5.625 9.37 4.955 9.37 4.125C9.37 3.295 8.705 2.625 7.875 2.625C7.045 2.625 6.375 3.295 6.375 4.125C6.375 4.955 7.045 5.625 7.875 5.625ZM3.875 5.625C4.705 5.625 5.37 4.955 5.37 4.125C5.37 3.295 4.705 2.625 3.875 2.625C3.045 2.625 2.375 3.295 2.375 4.125C2.375 4.955 3.045 5.625 3.875 5.625ZM3.875 6.625C2.71 6.625 0.375 7.21 0.375 8.375V9.625H7.375V8.375C7.375 7.21 5.04 6.625 3.875 6.625ZM7.875 6.625C7.73 6.625 7.565 6.635 7.39 6.65C7.97 7.07 8.375 7.635 8.375 8.375V9.625H11.375V8.375C11.375 7.21 9.04 6.625 7.875 6.625Z" fill="currentColor"/>
</svg>
