<svg   viewBox="0 0 12 12" fill="currentColor" xmlns="http://www.w3.org/2000/svg">
<path d="M4.25 5.5C4.25 5.866 4.333 6.212 4.4745 6.5255L2.5 8.5V9.25C2.5 9.25 2.948 10 3.5 10H4.5V9H5.5V8H6.75C8.131 8 9.25 6.881 9.25 5.5C9.25 4.119 8.131 3 6.75 3C5.369 3 4.25 4.119 4.25 5.5ZM6.75 6.5C6.61865 6.49997 6.48858 6.47406 6.36724 6.42376C6.2459 6.37347 6.13565 6.29976 6.04279 6.20686C5.94993 6.11395 5.87628 6.00367 5.82604 5.8823C5.77581 5.76093 5.74997 5.63085 5.75 5.4995C5.75003 5.36814 5.77594 5.23808 5.82624 5.11674C5.87653 4.9954 5.95024 4.88515 6.04314 4.79229C6.13605 4.69943 6.24633 4.62578 6.3677 4.57554C6.48907 4.52531 6.61915 4.49947 6.7505 4.4995C7.01578 4.49957 7.27017 4.60501 7.45771 4.79264C7.64525 4.98027 7.75057 5.23472 7.7505 5.5C7.75043 5.76528 7.64499 6.01967 7.45736 6.20721C7.26973 6.39475 7.01528 6.50007 6.75 6.5Z" fill="currentColor"/>
</svg>
